<svg xmlns="http://www.w3.org/2000/svg" xmlns:xlink="http://www.w3.org/1999/xlink" width="2200" zoomAndPan="magnify" viewBox="0 0 1650 599.999999" height="800" preserveAspectRatio="xMidYMid meet" version="1.0"><defs><g/></defs><g fill="#12c8ec" fill-opacity="1"><g transform="translate(-1.841605, 485.598002)"><g><path d="M 362.1875 -265.296875 C 383.832031 -255.828125 394.65625 -244.160156 394.65625 -230.296875 C 394.65625 -224.546875 391.945312 -215.328125 386.53125 -202.640625 C 381.125 -189.960938 376.5625 -178.890625 372.84375 -169.421875 L 317.046875 -33.484375 C 311.972656 -18.597656 303.515625 -8.113281 291.671875 -2.03125 C 286.597656 0.332031 280.171875 1.515625 272.390625 1.515625 C 264.617188 1.515625 257.097656 -1.441406 249.828125 -7.359375 C 242.554688 -13.273438 237.738281 -19.273438 235.375 -25.359375 L 231.3125 -33.984375 C 228.601562 -40.742188 218.628906 -67.125 201.390625 -113.125 C 198.003906 -105.007812 193.015625 -91.734375 186.421875 -73.296875 C 179.828125 -54.867188 175.597656 -43.367188 173.734375 -38.796875 C 171.878906 -34.234375 170.695312 -31.191406 170.1875 -29.671875 C 169.675781 -28.148438 168.238281 -25.359375 165.875 -21.296875 C 163.507812 -17.242188 160.804688 -13.695312 157.765625 -10.65625 C 149.640625 -2.539062 140.335938 1.515625 129.859375 1.515625 C 119.378906 1.515625 110.585938 -1.441406 103.484375 -7.359375 C 96.378906 -13.273438 91.644531 -19.273438 89.28125 -25.359375 L 12.6875 -212.03125 C 9.300781 -222.175781 7.609375 -228.773438 7.609375 -231.828125 C 7.609375 -245.347656 17.242188 -256 36.515625 -263.78125 C 47.335938 -268.175781 56.128906 -270.375 62.890625 -270.375 C 69.660156 -270.375 75.160156 -268.9375 79.390625 -266.0625 C 83.617188 -263.1875 86.578125 -260.3125 88.265625 -257.4375 C 89.953125 -254.5625 91.304688 -251.601562 92.328125 -248.5625 C 98.078125 -235.03125 110.082031 -203.238281 128.34375 -153.1875 L 158.265625 -235.375 C 160.296875 -242.132812 164.015625 -248.050781 169.421875 -253.125 C 179.234375 -262.9375 189.210938 -267.84375 199.359375 -267.84375 C 209.503906 -267.84375 218.210938 -265.132812 225.484375 -259.71875 C 232.753906 -254.3125 237.738281 -248.898438 240.4375 -243.484375 L 244.5 -234.859375 C 261.40625 -187.515625 271.382812 -160.460938 274.4375 -153.703125 L 305.375 -237.90625 C 313.488281 -259.550781 325.660156 -270.375 341.890625 -270.375 C 348.316406 -270.375 355.082031 -268.679688 362.1875 -265.296875 Z M 362.1875 -265.296875 "/></g></g></g><g fill="#12c8ec" fill-opacity="1"><g transform="translate(389.257008, 485.598002)"><g><path d="M 12.6875 -133.40625 C 12.6875 -173.988281 26.890625 -207.46875 55.296875 -233.84375 C 83.703125 -260.226562 116.164062 -273.421875 152.6875 -273.421875 C 189.207031 -273.421875 221.5 -260.316406 249.5625 -234.109375 C 277.632812 -207.898438 291.671875 -174.503906 291.671875 -133.921875 C 291.671875 -105.847656 284.398438 -80.90625 269.859375 -59.09375 C 255.316406 -37.28125 237.644531 -21.21875 216.84375 -10.90625 C 196.050781 -0.59375 174.492188 4.5625 152.171875 4.5625 C 129.859375 4.5625 108.21875 -0.929688 87.25 -11.921875 C 66.28125 -22.910156 48.609375 -39.140625 34.234375 -60.609375 C 19.867188 -82.085938 12.6875 -106.351562 12.6875 -133.40625 Z M 118.703125 -97.140625 C 129.523438 -88.859375 140.515625 -84.71875 151.671875 -84.71875 C 162.828125 -84.71875 173.984375 -88.941406 185.140625 -97.390625 C 196.304688 -105.847656 201.890625 -118.359375 201.890625 -134.921875 C 201.890625 -151.492188 196.644531 -163.835938 186.15625 -171.953125 C 175.675781 -180.078125 164.347656 -184.140625 152.171875 -184.140625 C 140.003906 -184.140625 128.675781 -179.910156 118.1875 -171.453125 C 107.707031 -163.003906 102.46875 -150.578125 102.46875 -134.171875 C 102.46875 -117.765625 107.878906 -105.421875 118.703125 -97.140625 Z M 118.703125 -97.140625 "/></g></g></g><g fill="#6733fc" fill-opacity="1"><g transform="translate(682.463057, 485.598002)"><g><path d="M 176.53125 -266.828125 C 199.863281 -266.828125 213.554688 -260.398438 217.609375 -247.546875 C 219.640625 -241.117188 220.65625 -232.660156 220.65625 -222.171875 C 220.65625 -211.691406 219.554688 -203.320312 217.359375 -197.0625 C 215.160156 -190.8125 211.695312 -186.332031 206.96875 -183.625 C 199.863281 -179.570312 189.546875 -177.546875 176.015625 -177.546875 L 143.5625 -179.578125 L 143.5625 -43.625 C 143.5625 -30.769531 141.953125 -21.210938 138.734375 -14.953125 C 135.523438 -8.703125 130.625 -4.5625 124.03125 -2.53125 C 117.4375 -0.507812 108.894531 0.5 98.40625 0.5 C 87.925781 0.5 79.554688 -0.597656 73.296875 -2.796875 C 67.046875 -4.992188 62.566406 -8.539062 59.859375 -13.4375 C 57.148438 -18.34375 55.539062 -22.820312 55.03125 -26.875 C 54.53125 -30.9375 54.28125 -36.859375 54.28125 -44.640625 L 54.28125 -179.0625 L 36.015625 -179.0625 C 27.222656 -179.738281 20.96875 -181.769531 17.25 -185.15625 C 10.820312 -191.582031 7.609375 -203.925781 7.609375 -222.1875 C 7.609375 -249.914062 17.582031 -263.78125 37.53125 -263.78125 L 54.28125 -263.78125 L 54.28125 -290.65625 C 54.28125 -316.695312 63.578125 -340.285156 82.171875 -361.421875 C 100.773438 -382.554688 127.660156 -393.125 162.828125 -393.125 C 170.609375 -393.125 176.441406 -392.867188 180.328125 -392.359375 C 184.222656 -391.859375 188.707031 -390.253906 193.78125 -387.546875 C 202.90625 -383.148438 207.46875 -370.128906 207.46875 -348.484375 C 207.46875 -332.253906 204.59375 -320.585938 198.84375 -313.484375 C 194.113281 -308.078125 186.675781 -305.035156 176.53125 -304.359375 C 173.488281 -304.359375 168.753906 -304.359375 162.328125 -304.359375 C 149.816406 -304.359375 143.5625 -300.128906 143.5625 -291.671875 L 143.5625 -263.78125 Z M 176.53125 -266.828125 "/></g></g></g><g fill="#6733fc" fill-opacity="1"><g transform="translate(899.571045, 485.598002)"><g><path d="M 20.296875 -348.484375 C 20.296875 -356.265625 20.546875 -362.097656 21.046875 -365.984375 C 21.554688 -369.878906 22.992188 -374.363281 25.359375 -379.4375 C 30.097656 -388.5625 43.289062 -393.125 64.9375 -393.125 C 85.5625 -393.125 98.410156 -388.5625 103.484375 -379.4375 C 106.191406 -374.363281 107.796875 -369.796875 108.296875 -365.734375 C 108.804688 -361.679688 109.0625 -355.765625 109.0625 -347.984375 L 109.0625 -113.125 C 109.0625 -100.945312 110.078125 -93.25 112.109375 -90.03125 C 114.140625 -86.820312 118.617188 -85.21875 125.546875 -85.21875 C 132.484375 -85.21875 137.132812 -84.960938 139.5 -84.453125 C 141.863281 -83.953125 144.738281 -82.515625 148.125 -80.140625 C 154.882812 -75.742188 158.265625 -63.738281 158.265625 -44.125 C 158.265625 -22.820312 154.882812 -9.804688 148.125 -5.078125 C 139.332031 1.015625 118.363281 2.03125 85.21875 -2.03125 C 59.175781 -5.414062 42.269531 -14.039062 34.5 -27.90625 C 25.03125 -44.46875 20.296875 -70.84375 20.296875 -107.03125 Z M 20.296875 -348.484375 "/></g></g></g><g fill="#6733fc" fill-opacity="1"><g transform="translate(1054.285801, 485.598002)"><g><path d="M 12.6875 -133.40625 C 12.6875 -173.988281 26.890625 -207.46875 55.296875 -233.84375 C 83.703125 -260.226562 116.164062 -273.421875 152.6875 -273.421875 C 189.207031 -273.421875 221.5 -260.316406 249.5625 -234.109375 C 277.632812 -207.898438 291.671875 -174.503906 291.671875 -133.921875 C 291.671875 -105.847656 284.398438 -80.90625 269.859375 -59.09375 C 255.316406 -37.28125 237.644531 -21.21875 216.84375 -10.90625 C 196.050781 -0.59375 174.492188 4.5625 152.171875 4.5625 C 129.859375 4.5625 108.21875 -0.929688 87.25 -11.921875 C 66.28125 -22.910156 48.609375 -39.140625 34.234375 -60.609375 C 19.867188 -82.085938 12.6875 -106.351562 12.6875 -133.40625 Z M 118.703125 -97.140625 C 129.523438 -88.859375 140.515625 -84.71875 151.671875 -84.71875 C 162.828125 -84.71875 173.984375 -88.941406 185.140625 -97.390625 C 196.304688 -105.847656 201.890625 -118.359375 201.890625 -134.921875 C 201.890625 -151.492188 196.644531 -163.835938 186.15625 -171.953125 C 175.675781 -180.078125 164.347656 -184.140625 152.171875 -184.140625 C 140.003906 -184.140625 128.675781 -179.910156 118.1875 -171.453125 C 107.707031 -163.003906 102.46875 -150.578125 102.46875 -134.171875 C 102.46875 -117.765625 107.878906 -105.421875 118.703125 -97.140625 Z M 118.703125 -97.140625 "/></g></g></g><g fill="#6733fc" fill-opacity="1"><g transform="translate(1347.482966, 485.598002)"><g><path d="M 12.6875 -133.40625 C 12.6875 -173.988281 26.890625 -207.46875 55.296875 -233.84375 C 83.703125 -260.226562 116.164062 -273.421875 152.6875 -273.421875 C 189.207031 -273.421875 221.5 -260.316406 249.5625 -234.109375 C 277.632812 -207.898438 291.671875 -174.503906 291.671875 -133.921875 C 291.671875 -105.847656 284.398438 -80.90625 269.859375 -59.09375 C 255.316406 -37.28125 237.644531 -21.21875 216.84375 -10.90625 C 196.050781 -0.59375 174.492188 4.5625 152.171875 4.5625 C 129.859375 4.5625 108.21875 -0.929688 87.25 -11.921875 C 66.28125 -22.910156 48.609375 -39.140625 34.234375 -60.609375 C 19.867188 -82.085938 12.6875 -106.351562 12.6875 -133.40625 Z M 118.703125 -97.140625 C 129.523438 -88.859375 140.515625 -84.71875 151.671875 -84.71875 C 162.828125 -84.71875 173.984375 -88.941406 185.140625 -97.390625 C 196.304688 -105.847656 201.890625 -118.359375 201.890625 -134.921875 C 201.890625 -151.492188 196.644531 -163.835938 186.15625 -171.953125 C 175.675781 -180.078125 164.347656 -184.140625 152.171875 -184.140625 C 140.003906 -184.140625 128.675781 -179.910156 118.1875 -171.453125 C 107.707031 -163.003906 102.46875 -150.578125 102.46875 -134.171875 C 102.46875 -117.765625 107.878906 -105.421875 118.703125 -97.140625 Z M 118.703125 -97.140625 "/></g></g></g></svg>