<svg xmlns="http://www.w3.org/2000/svg" xmlns:xlink="http://www.w3.org/1999/xlink" width="2200" zoomAndPan="magnify" viewBox="0 0 1650 749.999995" height="1000" preserveAspectRatio="xMidYMid meet" version="1.0"><defs><g/></defs><g fill="#ff00ff" fill-opacity="1"><g transform="translate(27.407702, 556.523057)"><g><path d="M 353.4375 -258.890625 C 374.5625 -249.648438 385.125 -238.265625 385.125 -224.734375 C 385.125 -219.128906 382.484375 -210.140625 377.203125 -197.765625 C 371.921875 -185.390625 367.46875 -174.578125 363.84375 -165.328125 L 309.390625 -32.671875 C 304.429688 -18.148438 296.179688 -7.921875 284.640625 -1.984375 C 279.679688 0.328125 273.40625 1.484375 265.8125 1.484375 C 258.226562 1.484375 250.890625 -1.398438 243.796875 -7.171875 C 236.703125 -12.953125 232 -18.8125 229.6875 -24.75 L 225.734375 -33.171875 C 223.085938 -39.765625 213.347656 -65.503906 196.515625 -110.390625 C 193.222656 -102.472656 188.359375 -89.519531 181.921875 -71.53125 C 175.484375 -53.539062 171.351562 -42.316406 169.53125 -37.859375 C 167.71875 -33.410156 166.5625 -30.441406 166.0625 -28.953125 C 165.570312 -27.472656 164.171875 -24.75 161.859375 -20.78125 C 159.554688 -16.820312 156.921875 -13.359375 153.953125 -10.390625 C 146.023438 -2.472656 136.945312 1.484375 126.71875 1.484375 C 116.488281 1.484375 107.910156 -1.398438 100.984375 -7.171875 C 94.054688 -12.953125 89.4375 -18.8125 87.125 -24.75 L 12.375 -206.921875 C 9.070312 -216.816406 7.421875 -223.25 7.421875 -226.21875 C 7.421875 -239.414062 16.828125 -249.8125 35.640625 -257.40625 C 46.203125 -261.695312 54.78125 -263.84375 61.375 -263.84375 C 67.976562 -263.84375 73.34375 -262.4375 77.46875 -259.625 C 81.59375 -256.820312 84.476562 -254.019531 86.125 -251.21875 C 87.78125 -248.414062 89.101562 -245.53125 90.09375 -242.5625 C 95.707031 -229.351562 107.421875 -198.332031 125.234375 -149.5 L 154.4375 -229.6875 C 156.425781 -236.289062 160.054688 -242.066406 165.328125 -247.015625 C 174.898438 -256.585938 184.632812 -261.375 194.53125 -261.375 C 204.4375 -261.375 212.9375 -258.734375 220.03125 -253.453125 C 227.125 -248.171875 231.992188 -242.890625 234.640625 -237.609375 L 238.59375 -229.1875 C 255.09375 -182.988281 264.828125 -156.585938 267.796875 -149.984375 L 298 -232.15625 C 305.914062 -253.28125 317.796875 -263.84375 333.640625 -263.84375 C 339.910156 -263.84375 346.507812 -262.191406 353.4375 -258.890625 Z M 353.4375 -258.890625 "/></g></g></g><g fill="#ff00ff" fill-opacity="1"><g transform="translate(409.058515, 556.523057)"><g><path d="M 12.375 -130.1875 C 12.375 -169.789062 26.234375 -202.460938 53.953125 -228.203125 C 81.671875 -253.941406 113.351562 -266.8125 149 -266.8125 C 184.644531 -266.8125 216.160156 -254.023438 243.546875 -228.453125 C 270.941406 -202.878906 284.640625 -170.289062 284.640625 -130.6875 C 284.640625 -103.289062 277.539062 -78.945312 263.34375 -57.65625 C 249.15625 -36.375 231.910156 -20.703125 211.609375 -10.640625 C 191.316406 -0.578125 170.28125 4.453125 148.5 4.453125 C 126.71875 4.453125 105.597656 -0.90625 85.140625 -11.625 C 64.679688 -22.351562 47.4375 -38.195312 33.40625 -59.15625 C 19.382812 -80.113281 12.375 -103.789062 12.375 -130.1875 Z M 115.828125 -94.796875 C 126.390625 -86.710938 137.113281 -82.671875 148 -82.671875 C 158.894531 -82.671875 169.785156 -86.796875 180.671875 -95.046875 C 191.566406 -103.296875 197.015625 -115.503906 197.015625 -131.671875 C 197.015625 -147.847656 191.898438 -159.894531 181.671875 -167.8125 C 171.441406 -175.726562 160.382812 -179.6875 148.5 -179.6875 C 136.625 -179.6875 125.570312 -175.5625 115.34375 -167.3125 C 105.113281 -159.0625 100 -146.929688 100 -130.921875 C 100 -114.921875 105.273438 -102.878906 115.828125 -94.796875 Z M 115.828125 -94.796875 "/></g></g></g><g fill="#00ffff" fill-opacity="1"><g transform="translate(8.844562, 556.523057)"><g><path d="M 353.4375 -258.890625 C 374.5625 -249.648438 385.125 -238.265625 385.125 -224.734375 C 385.125 -219.128906 382.484375 -210.140625 377.203125 -197.765625 C 371.921875 -185.390625 367.46875 -174.578125 363.84375 -165.328125 L 309.390625 -32.671875 C 304.429688 -18.148438 296.179688 -7.921875 284.640625 -1.984375 C 279.679688 0.328125 273.40625 1.484375 265.8125 1.484375 C 258.226562 1.484375 250.890625 -1.398438 243.796875 -7.171875 C 236.703125 -12.953125 232 -18.8125 229.6875 -24.75 L 225.734375 -33.171875 C 223.085938 -39.765625 213.347656 -65.503906 196.515625 -110.390625 C 193.222656 -102.472656 188.359375 -89.519531 181.921875 -71.53125 C 175.484375 -53.539062 171.351562 -42.316406 169.53125 -37.859375 C 167.71875 -33.410156 166.5625 -30.441406 166.0625 -28.953125 C 165.570312 -27.472656 164.171875 -24.75 161.859375 -20.78125 C 159.554688 -16.820312 156.921875 -13.359375 153.953125 -10.390625 C 146.023438 -2.472656 136.945312 1.484375 126.71875 1.484375 C 116.488281 1.484375 107.910156 -1.398438 100.984375 -7.171875 C 94.054688 -12.953125 89.4375 -18.8125 87.125 -24.75 L 12.375 -206.921875 C 9.070312 -216.816406 7.421875 -223.25 7.421875 -226.21875 C 7.421875 -239.414062 16.828125 -249.8125 35.640625 -257.40625 C 46.203125 -261.695312 54.78125 -263.84375 61.375 -263.84375 C 67.976562 -263.84375 73.34375 -262.4375 77.46875 -259.625 C 81.59375 -256.820312 84.476562 -254.019531 86.125 -251.21875 C 87.78125 -248.414062 89.101562 -245.53125 90.09375 -242.5625 C 95.707031 -229.351562 107.421875 -198.332031 125.234375 -149.5 L 154.4375 -229.6875 C 156.425781 -236.289062 160.054688 -242.066406 165.328125 -247.015625 C 174.898438 -256.585938 184.632812 -261.375 194.53125 -261.375 C 204.4375 -261.375 212.9375 -258.734375 220.03125 -253.453125 C 227.125 -248.171875 231.992188 -242.890625 234.640625 -237.609375 L 238.59375 -229.1875 C 255.09375 -182.988281 264.828125 -156.585938 267.796875 -149.984375 L 298 -232.15625 C 305.914062 -253.28125 317.796875 -263.84375 333.640625 -263.84375 C 339.910156 -263.84375 346.507812 -262.191406 353.4375 -258.890625 Z M 353.4375 -258.890625 "/></g></g></g><g fill="#00ffff" fill-opacity="1"><g transform="translate(390.495375, 556.523057)"><g><path d="M 12.375 -130.1875 C 12.375 -169.789062 26.234375 -202.460938 53.953125 -228.203125 C 81.671875 -253.941406 113.351562 -266.8125 149 -266.8125 C 184.644531 -266.8125 216.160156 -254.023438 243.546875 -228.453125 C 270.941406 -202.878906 284.640625 -170.289062 284.640625 -130.6875 C 284.640625 -103.289062 277.539062 -78.945312 263.34375 -57.65625 C 249.15625 -36.375 231.910156 -20.703125 211.609375 -10.640625 C 191.316406 -0.578125 170.28125 4.453125 148.5 4.453125 C 126.71875 4.453125 105.597656 -0.90625 85.140625 -11.625 C 64.679688 -22.351562 47.4375 -38.195312 33.40625 -59.15625 C 19.382812 -80.113281 12.375 -103.789062 12.375 -130.1875 Z M 115.828125 -94.796875 C 126.390625 -86.710938 137.113281 -82.671875 148 -82.671875 C 158.894531 -82.671875 169.785156 -86.796875 180.671875 -95.046875 C 191.566406 -103.296875 197.015625 -115.503906 197.015625 -131.671875 C 197.015625 -147.847656 191.898438 -159.894531 181.671875 -167.8125 C 171.441406 -175.726562 160.382812 -179.6875 148.5 -179.6875 C 136.625 -179.6875 125.570312 -175.5625 115.34375 -167.3125 C 105.113281 -159.0625 100 -146.929688 100 -130.921875 C 100 -114.921875 105.273438 -102.878906 115.828125 -94.796875 Z M 115.828125 -94.796875 "/></g></g></g><g fill="#162649" fill-opacity="1"><g transform="translate(18.126132, 556.523057)"><g><path d="M 353.4375 -258.890625 C 374.5625 -249.648438 385.125 -238.265625 385.125 -224.734375 C 385.125 -219.128906 382.484375 -210.140625 377.203125 -197.765625 C 371.921875 -185.390625 367.46875 -174.578125 363.84375 -165.328125 L 309.390625 -32.671875 C 304.429688 -18.148438 296.179688 -7.921875 284.640625 -1.984375 C 279.679688 0.328125 273.40625 1.484375 265.8125 1.484375 C 258.226562 1.484375 250.890625 -1.398438 243.796875 -7.171875 C 236.703125 -12.953125 232 -18.8125 229.6875 -24.75 L 225.734375 -33.171875 C 223.085938 -39.765625 213.347656 -65.503906 196.515625 -110.390625 C 193.222656 -102.472656 188.359375 -89.519531 181.921875 -71.53125 C 175.484375 -53.539062 171.351562 -42.316406 169.53125 -37.859375 C 167.71875 -33.410156 166.5625 -30.441406 166.0625 -28.953125 C 165.570312 -27.472656 164.171875 -24.75 161.859375 -20.78125 C 159.554688 -16.820312 156.921875 -13.359375 153.953125 -10.390625 C 146.023438 -2.472656 136.945312 1.484375 126.71875 1.484375 C 116.488281 1.484375 107.910156 -1.398438 100.984375 -7.171875 C 94.054688 -12.953125 89.4375 -18.8125 87.125 -24.75 L 12.375 -206.921875 C 9.070312 -216.816406 7.421875 -223.25 7.421875 -226.21875 C 7.421875 -239.414062 16.828125 -249.8125 35.640625 -257.40625 C 46.203125 -261.695312 54.78125 -263.84375 61.375 -263.84375 C 67.976562 -263.84375 73.34375 -262.4375 77.46875 -259.625 C 81.59375 -256.820312 84.476562 -254.019531 86.125 -251.21875 C 87.78125 -248.414062 89.101562 -245.53125 90.09375 -242.5625 C 95.707031 -229.351562 107.421875 -198.332031 125.234375 -149.5 L 154.4375 -229.6875 C 156.425781 -236.289062 160.054688 -242.066406 165.328125 -247.015625 C 174.898438 -256.585938 184.632812 -261.375 194.53125 -261.375 C 204.4375 -261.375 212.9375 -258.734375 220.03125 -253.453125 C 227.125 -248.171875 231.992188 -242.890625 234.640625 -237.609375 L 238.59375 -229.1875 C 255.09375 -182.988281 264.828125 -156.585938 267.796875 -149.984375 L 298 -232.15625 C 305.914062 -253.28125 317.796875 -263.84375 333.640625 -263.84375 C 339.910156 -263.84375 346.507812 -262.191406 353.4375 -258.890625 Z M 353.4375 -258.890625 "/></g></g></g><g fill="#162649" fill-opacity="1"><g transform="translate(399.776945, 556.523057)"><g><path d="M 12.375 -130.1875 C 12.375 -169.789062 26.234375 -202.460938 53.953125 -228.203125 C 81.671875 -253.941406 113.351562 -266.8125 149 -266.8125 C 184.644531 -266.8125 216.160156 -254.023438 243.546875 -228.453125 C 270.941406 -202.878906 284.640625 -170.289062 284.640625 -130.6875 C 284.640625 -103.289062 277.539062 -78.945312 263.34375 -57.65625 C 249.15625 -36.375 231.910156 -20.703125 211.609375 -10.640625 C 191.316406 -0.578125 170.28125 4.453125 148.5 4.453125 C 126.71875 4.453125 105.597656 -0.90625 85.140625 -11.625 C 64.679688 -22.351562 47.4375 -38.195312 33.40625 -59.15625 C 19.382812 -80.113281 12.375 -103.789062 12.375 -130.1875 Z M 115.828125 -94.796875 C 126.390625 -86.710938 137.113281 -82.671875 148 -82.671875 C 158.894531 -82.671875 169.785156 -86.796875 180.671875 -95.046875 C 191.566406 -103.296875 197.015625 -115.503906 197.015625 -131.671875 C 197.015625 -147.847656 191.898438 -159.894531 181.671875 -167.8125 C 171.441406 -175.726562 160.382812 -179.6875 148.5 -179.6875 C 136.625 -179.6875 125.570312 -175.5625 115.34375 -167.3125 C 105.113281 -159.0625 100 -146.929688 100 -130.921875 C 100 -114.921875 105.273438 -102.878906 115.828125 -94.796875 Z M 115.828125 -94.796875 "/></g></g></g><g fill="#ff00ff" fill-opacity="1"><g transform="translate(695.173996, 556.523057)"><g><path d="M 172.265625 -260.375 C 195.035156 -260.375 208.398438 -254.101562 212.359375 -241.5625 C 214.335938 -235.289062 215.328125 -227.039062 215.328125 -216.8125 C 215.328125 -206.582031 214.253906 -198.414062 212.109375 -192.3125 C 209.960938 -186.207031 206.582031 -181.835938 201.96875 -179.203125 C 195.039062 -175.234375 184.972656 -173.25 171.765625 -173.25 L 140.09375 -175.234375 L 140.09375 -42.578125 C 140.09375 -30.035156 138.523438 -20.707031 135.390625 -14.59375 C 132.253906 -8.488281 127.46875 -4.445312 121.03125 -2.46875 C 114.59375 -0.488281 106.257812 0.5 96.03125 0.5 C 85.800781 0.5 77.632812 -0.570312 71.53125 -2.71875 C 65.425781 -4.863281 61.050781 -8.328125 58.40625 -13.109375 C 55.769531 -17.898438 54.203125 -22.273438 53.703125 -26.234375 C 53.210938 -30.191406 52.96875 -35.96875 52.96875 -43.5625 L 52.96875 -174.734375 L 35.140625 -174.734375 C 26.566406 -175.398438 20.460938 -177.382812 16.828125 -180.6875 C 10.554688 -186.957031 7.421875 -199 7.421875 -216.8125 C 7.421875 -243.875 17.15625 -257.40625 36.625 -257.40625 L 52.96875 -257.40625 L 52.96875 -283.640625 C 52.96875 -309.054688 62.039062 -332.078125 80.1875 -352.703125 C 98.34375 -373.328125 124.582031 -383.640625 158.90625 -383.640625 C 166.488281 -383.640625 172.175781 -383.390625 175.96875 -382.890625 C 179.769531 -382.398438 184.144531 -380.832031 189.09375 -378.1875 C 198.007812 -373.894531 202.46875 -361.191406 202.46875 -340.078125 C 202.46875 -324.234375 199.660156 -312.847656 194.046875 -305.921875 C 189.421875 -300.640625 182.160156 -297.671875 172.265625 -297.015625 C 169.296875 -297.015625 164.675781 -297.015625 158.40625 -297.015625 C 146.195312 -297.015625 140.09375 -292.890625 140.09375 -284.640625 L 140.09375 -257.40625 Z M 172.265625 -260.375 "/></g></g></g><g fill="#ff00ff" fill-opacity="1"><g transform="translate(907.037222, 556.523057)"><g><path d="M 19.796875 -340.078125 C 19.796875 -347.671875 20.039062 -353.363281 20.53125 -357.15625 C 21.03125 -360.945312 22.4375 -365.316406 24.75 -370.265625 C 29.375 -379.179688 42.242188 -383.640625 63.359375 -383.640625 C 83.492188 -383.640625 96.035156 -379.179688 100.984375 -370.265625 C 103.617188 -365.316406 105.179688 -360.863281 105.671875 -356.90625 C 106.171875 -352.945312 106.421875 -347.171875 106.421875 -339.578125 L 106.421875 -110.390625 C 106.421875 -98.503906 107.410156 -90.992188 109.390625 -87.859375 C 111.378906 -84.722656 115.753906 -83.15625 122.515625 -83.15625 C 129.285156 -83.15625 133.820312 -82.90625 136.125 -82.40625 C 138.4375 -81.914062 141.242188 -80.519531 144.546875 -78.21875 C 151.140625 -73.925781 154.4375 -62.207031 154.4375 -43.0625 C 154.4375 -22.269531 151.140625 -9.566406 144.546875 -4.953125 C 135.960938 0.984375 115.5 1.972656 83.15625 -1.984375 C 57.75 -5.285156 41.25 -13.695312 33.65625 -27.21875 C 24.414062 -43.394531 19.796875 -69.140625 19.796875 -104.453125 Z M 19.796875 -340.078125 "/></g></g></g><g fill="#ff00ff" fill-opacity="1"><g transform="translate(1058.014422, 556.523057)"><g><path d="M 12.375 -130.1875 C 12.375 -169.789062 26.234375 -202.460938 53.953125 -228.203125 C 81.671875 -253.941406 113.351562 -266.8125 149 -266.8125 C 184.644531 -266.8125 216.160156 -254.023438 243.546875 -228.453125 C 270.941406 -202.878906 284.640625 -170.289062 284.640625 -130.6875 C 284.640625 -103.289062 277.539062 -78.945312 263.34375 -57.65625 C 249.15625 -36.375 231.910156 -20.703125 211.609375 -10.640625 C 191.316406 -0.578125 170.28125 4.453125 148.5 4.453125 C 126.71875 4.453125 105.597656 -0.90625 85.140625 -11.625 C 64.679688 -22.351562 47.4375 -38.195312 33.40625 -59.15625 C 19.382812 -80.113281 12.375 -103.789062 12.375 -130.1875 Z M 115.828125 -94.796875 C 126.390625 -86.710938 137.113281 -82.671875 148 -82.671875 C 158.894531 -82.671875 169.785156 -86.796875 180.671875 -95.046875 C 191.566406 -103.296875 197.015625 -115.503906 197.015625 -131.671875 C 197.015625 -147.847656 191.898438 -159.894531 181.671875 -167.8125 C 171.441406 -175.726562 160.382812 -179.6875 148.5 -179.6875 C 136.625 -179.6875 125.570312 -175.5625 115.34375 -167.3125 C 105.113281 -159.0625 100 -146.929688 100 -130.921875 C 100 -114.921875 105.273438 -102.878906 115.828125 -94.796875 Z M 115.828125 -94.796875 "/></g></g></g><g fill="#ff00ff" fill-opacity="1"><g transform="translate(1344.128796, 556.523057)"><g><path d="M 12.375 -130.1875 C 12.375 -169.789062 26.234375 -202.460938 53.953125 -228.203125 C 81.671875 -253.941406 113.351562 -266.8125 149 -266.8125 C 184.644531 -266.8125 216.160156 -254.023438 243.546875 -228.453125 C 270.941406 -202.878906 284.640625 -170.289062 284.640625 -130.6875 C 284.640625 -103.289062 277.539062 -78.945312 263.34375 -57.65625 C 249.15625 -36.375 231.910156 -20.703125 211.609375 -10.640625 C 191.316406 -0.578125 170.28125 4.453125 148.5 4.453125 C 126.71875 4.453125 105.597656 -0.90625 85.140625 -11.625 C 64.679688 -22.351562 47.4375 -38.195312 33.40625 -59.15625 C 19.382812 -80.113281 12.375 -103.789062 12.375 -130.1875 Z M 115.828125 -94.796875 C 126.390625 -86.710938 137.113281 -82.671875 148 -82.671875 C 158.894531 -82.671875 169.785156 -86.796875 180.671875 -95.046875 C 191.566406 -103.296875 197.015625 -115.503906 197.015625 -131.671875 C 197.015625 -147.847656 191.898438 -159.894531 181.671875 -167.8125 C 171.441406 -175.726562 160.382812 -179.6875 148.5 -179.6875 C 136.625 -179.6875 125.570312 -175.5625 115.34375 -167.3125 C 105.113281 -159.0625 100 -146.929688 100 -130.921875 C 100 -114.921875 105.273438 -102.878906 115.828125 -94.796875 Z M 115.828125 -94.796875 "/></g></g></g><g fill="#00ffff" fill-opacity="1"><g transform="translate(676.610856, 556.523057)"><g><path d="M 172.265625 -260.375 C 195.035156 -260.375 208.398438 -254.101562 212.359375 -241.5625 C 214.335938 -235.289062 215.328125 -227.039062 215.328125 -216.8125 C 215.328125 -206.582031 214.253906 -198.414062 212.109375 -192.3125 C 209.960938 -186.207031 206.582031 -181.835938 201.96875 -179.203125 C 195.039062 -175.234375 184.972656 -173.25 171.765625 -173.25 L 140.09375 -175.234375 L 140.09375 -42.578125 C 140.09375 -30.035156 138.523438 -20.707031 135.390625 -14.59375 C 132.253906 -8.488281 127.46875 -4.445312 121.03125 -2.46875 C 114.59375 -0.488281 106.257812 0.5 96.03125 0.5 C 85.800781 0.5 77.632812 -0.570312 71.53125 -2.71875 C 65.425781 -4.863281 61.050781 -8.328125 58.40625 -13.109375 C 55.769531 -17.898438 54.203125 -22.273438 53.703125 -26.234375 C 53.210938 -30.191406 52.96875 -35.96875 52.96875 -43.5625 L 52.96875 -174.734375 L 35.140625 -174.734375 C 26.566406 -175.398438 20.460938 -177.382812 16.828125 -180.6875 C 10.554688 -186.957031 7.421875 -199 7.421875 -216.8125 C 7.421875 -243.875 17.15625 -257.40625 36.625 -257.40625 L 52.96875 -257.40625 L 52.96875 -283.640625 C 52.96875 -309.054688 62.039062 -332.078125 80.1875 -352.703125 C 98.34375 -373.328125 124.582031 -383.640625 158.90625 -383.640625 C 166.488281 -383.640625 172.175781 -383.390625 175.96875 -382.890625 C 179.769531 -382.398438 184.144531 -380.832031 189.09375 -378.1875 C 198.007812 -373.894531 202.46875 -361.191406 202.46875 -340.078125 C 202.46875 -324.234375 199.660156 -312.847656 194.046875 -305.921875 C 189.421875 -300.640625 182.160156 -297.671875 172.265625 -297.015625 C 169.296875 -297.015625 164.675781 -297.015625 158.40625 -297.015625 C 146.195312 -297.015625 140.09375 -292.890625 140.09375 -284.640625 L 140.09375 -257.40625 Z M 172.265625 -260.375 "/></g></g></g><g fill="#00ffff" fill-opacity="1"><g transform="translate(888.474082, 556.523057)"><g><path d="M 19.796875 -340.078125 C 19.796875 -347.671875 20.039062 -353.363281 20.53125 -357.15625 C 21.03125 -360.945312 22.4375 -365.316406 24.75 -370.265625 C 29.375 -379.179688 42.242188 -383.640625 63.359375 -383.640625 C 83.492188 -383.640625 96.035156 -379.179688 100.984375 -370.265625 C 103.617188 -365.316406 105.179688 -360.863281 105.671875 -356.90625 C 106.171875 -352.945312 106.421875 -347.171875 106.421875 -339.578125 L 106.421875 -110.390625 C 106.421875 -98.503906 107.410156 -90.992188 109.390625 -87.859375 C 111.378906 -84.722656 115.753906 -83.15625 122.515625 -83.15625 C 129.285156 -83.15625 133.820312 -82.90625 136.125 -82.40625 C 138.4375 -81.914062 141.242188 -80.519531 144.546875 -78.21875 C 151.140625 -73.925781 154.4375 -62.207031 154.4375 -43.0625 C 154.4375 -22.269531 151.140625 -9.566406 144.546875 -4.953125 C 135.960938 0.984375 115.5 1.972656 83.15625 -1.984375 C 57.75 -5.285156 41.25 -13.695312 33.65625 -27.21875 C 24.414062 -43.394531 19.796875 -69.140625 19.796875 -104.453125 Z M 19.796875 -340.078125 "/></g></g></g><g fill="#00ffff" fill-opacity="1"><g transform="translate(1039.451283, 556.523057)"><g><path d="M 12.375 -130.1875 C 12.375 -169.789062 26.234375 -202.460938 53.953125 -228.203125 C 81.671875 -253.941406 113.351562 -266.8125 149 -266.8125 C 184.644531 -266.8125 216.160156 -254.023438 243.546875 -228.453125 C 270.941406 -202.878906 284.640625 -170.289062 284.640625 -130.6875 C 284.640625 -103.289062 277.539062 -78.945312 263.34375 -57.65625 C 249.15625 -36.375 231.910156 -20.703125 211.609375 -10.640625 C 191.316406 -0.578125 170.28125 4.453125 148.5 4.453125 C 126.71875 4.453125 105.597656 -0.90625 85.140625 -11.625 C 64.679688 -22.351562 47.4375 -38.195312 33.40625 -59.15625 C 19.382812 -80.113281 12.375 -103.789062 12.375 -130.1875 Z M 115.828125 -94.796875 C 126.390625 -86.710938 137.113281 -82.671875 148 -82.671875 C 158.894531 -82.671875 169.785156 -86.796875 180.671875 -95.046875 C 191.566406 -103.296875 197.015625 -115.503906 197.015625 -131.671875 C 197.015625 -147.847656 191.898438 -159.894531 181.671875 -167.8125 C 171.441406 -175.726562 160.382812 -179.6875 148.5 -179.6875 C 136.625 -179.6875 125.570312 -175.5625 115.34375 -167.3125 C 105.113281 -159.0625 100 -146.929688 100 -130.921875 C 100 -114.921875 105.273438 -102.878906 115.828125 -94.796875 Z M 115.828125 -94.796875 "/></g></g></g><g fill="#00ffff" fill-opacity="1"><g transform="translate(1325.565656, 556.523057)"><g><path d="M 12.375 -130.1875 C 12.375 -169.789062 26.234375 -202.460938 53.953125 -228.203125 C 81.671875 -253.941406 113.351562 -266.8125 149 -266.8125 C 184.644531 -266.8125 216.160156 -254.023438 243.546875 -228.453125 C 270.941406 -202.878906 284.640625 -170.289062 284.640625 -130.6875 C 284.640625 -103.289062 277.539062 -78.945312 263.34375 -57.65625 C 249.15625 -36.375 231.910156 -20.703125 211.609375 -10.640625 C 191.316406 -0.578125 170.28125 4.453125 148.5 4.453125 C 126.71875 4.453125 105.597656 -0.90625 85.140625 -11.625 C 64.679688 -22.351562 47.4375 -38.195312 33.40625 -59.15625 C 19.382812 -80.113281 12.375 -103.789062 12.375 -130.1875 Z M 115.828125 -94.796875 C 126.390625 -86.710938 137.113281 -82.671875 148 -82.671875 C 158.894531 -82.671875 169.785156 -86.796875 180.671875 -95.046875 C 191.566406 -103.296875 197.015625 -115.503906 197.015625 -131.671875 C 197.015625 -147.847656 191.898438 -159.894531 181.671875 -167.8125 C 171.441406 -175.726562 160.382812 -179.6875 148.5 -179.6875 C 136.625 -179.6875 125.570312 -175.5625 115.34375 -167.3125 C 105.113281 -159.0625 100 -146.929688 100 -130.921875 C 100 -114.921875 105.273438 -102.878906 115.828125 -94.796875 Z M 115.828125 -94.796875 "/></g></g></g><g fill="#181527" fill-opacity="1"><g transform="translate(685.892426, 556.523057)"><g><path d="M 172.265625 -260.375 C 195.035156 -260.375 208.398438 -254.101562 212.359375 -241.5625 C 214.335938 -235.289062 215.328125 -227.039062 215.328125 -216.8125 C 215.328125 -206.582031 214.253906 -198.414062 212.109375 -192.3125 C 209.960938 -186.207031 206.582031 -181.835938 201.96875 -179.203125 C 195.039062 -175.234375 184.972656 -173.25 171.765625 -173.25 L 140.09375 -175.234375 L 140.09375 -42.578125 C 140.09375 -30.035156 138.523438 -20.707031 135.390625 -14.59375 C 132.253906 -8.488281 127.46875 -4.445312 121.03125 -2.46875 C 114.59375 -0.488281 106.257812 0.5 96.03125 0.5 C 85.800781 0.5 77.632812 -0.570312 71.53125 -2.71875 C 65.425781 -4.863281 61.050781 -8.328125 58.40625 -13.109375 C 55.769531 -17.898438 54.203125 -22.273438 53.703125 -26.234375 C 53.210938 -30.191406 52.96875 -35.96875 52.96875 -43.5625 L 52.96875 -174.734375 L 35.140625 -174.734375 C 26.566406 -175.398438 20.460938 -177.382812 16.828125 -180.6875 C 10.554688 -186.957031 7.421875 -199 7.421875 -216.8125 C 7.421875 -243.875 17.15625 -257.40625 36.625 -257.40625 L 52.96875 -257.40625 L 52.96875 -283.640625 C 52.96875 -309.054688 62.039062 -332.078125 80.1875 -352.703125 C 98.34375 -373.328125 124.582031 -383.640625 158.90625 -383.640625 C 166.488281 -383.640625 172.175781 -383.390625 175.96875 -382.890625 C 179.769531 -382.398438 184.144531 -380.832031 189.09375 -378.1875 C 198.007812 -373.894531 202.46875 -361.191406 202.46875 -340.078125 C 202.46875 -324.234375 199.660156 -312.847656 194.046875 -305.921875 C 189.421875 -300.640625 182.160156 -297.671875 172.265625 -297.015625 C 169.296875 -297.015625 164.675781 -297.015625 158.40625 -297.015625 C 146.195312 -297.015625 140.09375 -292.890625 140.09375 -284.640625 L 140.09375 -257.40625 Z M 172.265625 -260.375 "/></g></g></g><g fill="#181527" fill-opacity="1"><g transform="translate(897.755652, 556.523057)"><g><path d="M 19.796875 -340.078125 C 19.796875 -347.671875 20.039062 -353.363281 20.53125 -357.15625 C 21.03125 -360.945312 22.4375 -365.316406 24.75 -370.265625 C 29.375 -379.179688 42.242188 -383.640625 63.359375 -383.640625 C 83.492188 -383.640625 96.035156 -379.179688 100.984375 -370.265625 C 103.617188 -365.316406 105.179688 -360.863281 105.671875 -356.90625 C 106.171875 -352.945312 106.421875 -347.171875 106.421875 -339.578125 L 106.421875 -110.390625 C 106.421875 -98.503906 107.410156 -90.992188 109.390625 -87.859375 C 111.378906 -84.722656 115.753906 -83.15625 122.515625 -83.15625 C 129.285156 -83.15625 133.820312 -82.90625 136.125 -82.40625 C 138.4375 -81.914062 141.242188 -80.519531 144.546875 -78.21875 C 151.140625 -73.925781 154.4375 -62.207031 154.4375 -43.0625 C 154.4375 -22.269531 151.140625 -9.566406 144.546875 -4.953125 C 135.960938 0.984375 115.5 1.972656 83.15625 -1.984375 C 57.75 -5.285156 41.25 -13.695312 33.65625 -27.21875 C 24.414062 -43.394531 19.796875 -69.140625 19.796875 -104.453125 Z M 19.796875 -340.078125 "/></g></g></g><g fill="#181527" fill-opacity="1"><g transform="translate(1048.732852, 556.523057)"><g><path d="M 12.375 -130.1875 C 12.375 -169.789062 26.234375 -202.460938 53.953125 -228.203125 C 81.671875 -253.941406 113.351562 -266.8125 149 -266.8125 C 184.644531 -266.8125 216.160156 -254.023438 243.546875 -228.453125 C 270.941406 -202.878906 284.640625 -170.289062 284.640625 -130.6875 C 284.640625 -103.289062 277.539062 -78.945312 263.34375 -57.65625 C 249.15625 -36.375 231.910156 -20.703125 211.609375 -10.640625 C 191.316406 -0.578125 170.28125 4.453125 148.5 4.453125 C 126.71875 4.453125 105.597656 -0.90625 85.140625 -11.625 C 64.679688 -22.351562 47.4375 -38.195312 33.40625 -59.15625 C 19.382812 -80.113281 12.375 -103.789062 12.375 -130.1875 Z M 115.828125 -94.796875 C 126.390625 -86.710938 137.113281 -82.671875 148 -82.671875 C 158.894531 -82.671875 169.785156 -86.796875 180.671875 -95.046875 C 191.566406 -103.296875 197.015625 -115.503906 197.015625 -131.671875 C 197.015625 -147.847656 191.898438 -159.894531 181.671875 -167.8125 C 171.441406 -175.726562 160.382812 -179.6875 148.5 -179.6875 C 136.625 -179.6875 125.570312 -175.5625 115.34375 -167.3125 C 105.113281 -159.0625 100 -146.929688 100 -130.921875 C 100 -114.921875 105.273438 -102.878906 115.828125 -94.796875 Z M 115.828125 -94.796875 "/></g></g></g><g fill="#181527" fill-opacity="1"><g transform="translate(1334.847226, 556.523057)"><g><path d="M 12.375 -130.1875 C 12.375 -169.789062 26.234375 -202.460938 53.953125 -228.203125 C 81.671875 -253.941406 113.351562 -266.8125 149 -266.8125 C 184.644531 -266.8125 216.160156 -254.023438 243.546875 -228.453125 C 270.941406 -202.878906 284.640625 -170.289062 284.640625 -130.6875 C 284.640625 -103.289062 277.539062 -78.945312 263.34375 -57.65625 C 249.15625 -36.375 231.910156 -20.703125 211.609375 -10.640625 C 191.316406 -0.578125 170.28125 4.453125 148.5 4.453125 C 126.71875 4.453125 105.597656 -0.90625 85.140625 -11.625 C 64.679688 -22.351562 47.4375 -38.195312 33.40625 -59.15625 C 19.382812 -80.113281 12.375 -103.789062 12.375 -130.1875 Z M 115.828125 -94.796875 C 126.390625 -86.710938 137.113281 -82.671875 148 -82.671875 C 158.894531 -82.671875 169.785156 -86.796875 180.671875 -95.046875 C 191.566406 -103.296875 197.015625 -115.503906 197.015625 -131.671875 C 197.015625 -147.847656 191.898438 -159.894531 181.671875 -167.8125 C 171.441406 -175.726562 160.382812 -179.6875 148.5 -179.6875 C 136.625 -179.6875 125.570312 -175.5625 115.34375 -167.3125 C 105.113281 -159.0625 100 -146.929688 100 -130.921875 C 100 -114.921875 105.273438 -102.878906 115.828125 -94.796875 Z M 115.828125 -94.796875 "/></g></g></g></svg>